<svg width="12" height="13" viewBox="0 0 12 13" fill="none" xmlns="http://www.w3.org/2000/svg">
  <path d="M11.507 7.46073C11.3394 7.40846 11.158 7.4246 11.0022 7.50564C10.8465 7.58669 10.7291 7.72605 10.6756 7.89336C10.3613 8.8548 9.74873 9.69082 8.92688 10.2798C8.10503 10.8688 7.11682 11.18 6.10603 11.1681C4.85579 11.1823 3.65094 10.6998 2.75567 9.82641C1.86041 8.953 1.34782 7.75997 1.33029 6.50892C1.34782 5.25788 1.86041 4.06485 2.75567 3.19144C3.65094 2.31803 4.85579 1.83553 6.10603 1.84975C7.23516 1.84703 8.32955 2.24033 9.19895 2.9613L7.75558 2.72168C7.66908 2.70744 7.58062 2.71045 7.49528 2.73054C7.40994 2.75063 7.32941 2.7874 7.25833 2.83874C7.18724 2.89008 7.127 2.95498 7.08106 3.0297C7.03513 3.10442 7.00441 3.18749 6.99067 3.27413C6.97643 3.36069 6.97944 3.44922 6.99952 3.53461C7.01959 3.62001 7.05634 3.70059 7.10764 3.77172C7.15895 3.84286 7.2238 3.90314 7.29847 3.94911C7.37314 3.99507 7.45615 4.02581 7.54274 4.03956L10.3629 4.50548H10.476C10.5532 4.50539 10.6297 4.49188 10.7022 4.46555C10.7265 4.45629 10.7491 4.44277 10.7687 4.42561C10.8164 4.40786 10.8612 4.38319 10.9017 4.35239L10.9616 4.27918C10.9616 4.2459 11.0214 4.21927 11.048 4.17934C11.0747 4.1394 11.048 4.11278 11.0813 4.08616C11.0997 4.04739 11.1152 4.00735 11.1279 3.96635L11.6267 1.30397C11.6433 1.21656 11.6425 1.12674 11.6245 1.03963C11.6064 0.952518 11.5713 0.869828 11.5213 0.796279C11.4712 0.722729 11.4072 0.659761 11.3329 0.610968C11.2585 0.562176 11.1753 0.528515 11.088 0.511907C11.0006 0.4953 10.9108 0.496071 10.8238 0.514178C10.7367 0.532284 10.6541 0.56737 10.5806 0.617433C10.4322 0.71854 10.33 0.874513 10.2964 1.05104L10.1168 2.01615C9.00339 1.05053 7.57944 0.51885 6.10603 0.518563C4.50298 0.504364 2.95978 1.12711 1.81505 2.25016C0.670315 3.37321 0.0175537 4.90483 0 6.50892C0.0175537 8.11302 0.670315 9.64463 1.81505 10.7677C2.95978 11.8907 4.50298 12.5135 6.10603 12.4993C7.40515 12.5193 8.67635 12.1213 9.73248 11.364C10.7886 10.6067 11.5739 9.53013 11.9726 8.29272C11.9978 8.2075 12.0057 8.11809 11.9959 8.02976C11.986 7.94144 11.9586 7.85598 11.9152 7.77843C11.8718 7.70089 11.8133 7.63282 11.7432 7.57826C11.6731 7.52369 11.5928 7.48373 11.507 7.46073Z" fill="white"/>
</svg>
